<svg id="Layer_1" data-name="Layer 1" xmlns="http://www.w3.org/2000/svg" xmlns:xlink="http://www.w3.org/1999/xlink" viewBox="0 0 383.49 157.69"><defs><style>.cls-1,.cls-13{fill:none;}.cls-2{font-size:100px;font-family:Queensides;letter-spacing:-0.03em;}.cls-13,.cls-2{stroke:#000;stroke-miterlimit:10;}.cls-3{font-size:125px;letter-spacing:-0.03em;}.cls-4{letter-spacing:-0.03em;}.cls-5{fill:#010101;}.cls-6{clip-path:url(#clip-path);}.cls-7{font-size:18px;font-family:DidotTitle, Didot Title;}.cls-8{letter-spacing:0.05em;}.cls-9{letter-spacing:0.05em;}.cls-10{letter-spacing:0.05em;}.cls-11{letter-spacing:0.05em;}.cls-12{clip-path:url(#clip-path-2);}.cls-13{stroke-width:0.25px;}</style><clipPath id="clip-path"><rect class="cls-1" x="-229.2" y="-206.29" width="797.98" height="564.97"/></clipPath><clipPath id="clip-path-2"><rect class="cls-1" x="-229.2" y="-206.29" width="841.89" height="595.28"/></clipPath></defs><text class="cls-2" transform="translate(160.95 104.92) scale(1.01 1)">R<tspan class="cls-3" x="51.15" y="0">ii</tspan><tspan class="cls-4" x="83.58" y="0">CH</tspan></text><path class="cls-5" d="M75.51,150.1,2.7,79.82l71.11-74,72.81,70.28ZM15,79.59l60.28,58.19,59-61.41L74,18.19Z"/><g class="cls-6"><path class="cls-5" d="M84.8,121.93a36.61,36.61,0,0,1-26.31-62L90.37,26.79l6.26,6L64.76,66a27.86,27.86,0,1,0,40.1,38.7l32.53-33.83,6.26,6-32.53,33.83A36.38,36.38,0,0,1,84.8,121.93"/><path class="cls-5" d="M59.34,128.11l-6.18-5.91L83.57,90.9a27.7,27.7,0,0,0-.74-39.42,28.28,28.28,0,0,0-39.76.74L12,84.18,5.82,78.27l31.06-32a36.93,36.93,0,0,1,51.91-1,36.22,36.22,0,0,1,1,51.46Z"/><rect class="cls-5" x="104.18" y="71.4" width="8.71" height="36.29" transform="translate(15.77 195.34) rotate(-88.28)"/></g><polygon class="cls-5" points="87.77 7.77 147.22 66.31 147.22 54.1 100.17 7.77 87.77 7.77"/><polygon class="cls-5" points="4.49 105.98 49.28 150.09 61.68 150.09 4.49 93.77 4.49 105.98"/><polygon class="cls-5" points="4.49 131.71 23.15 150.09 35.56 150.09 4.49 119.49 4.49 131.71"/><polygon class="cls-5" points="114.73 7.77 147.22 39.77 147.22 27.55 127.13 7.77 114.73 7.77"/><polygon class="cls-5" points="23.12 7.77 4.49 26.76 4.49 39.2 35.31 7.77 23.12 7.77"/><polygon class="cls-5" points="49.61 7.77 4.49 53.78 4.49 66.21 61.81 7.77 49.61 7.77"/><polygon class="cls-5" points="88.72 150.09 100.92 150.09 147.22 102.88 147.22 90.44 88.72 150.09"/><polygon class="cls-5" points="115.22 150.09 127.41 150.09 147.22 129.89 147.22 117.45 115.22 150.09"/><text class="cls-7" transform="translate(163.01 128.69) scale(1.09 1)"><tspan class="cls-8" xml:space="preserve">C A R P E T S  </tspan><tspan class="cls-9" x="114.98" y="0">&amp;</tspan><tspan class="cls-10" x="127.15" y="0" xml:space="preserve">  R U G </tspan><tspan class="cls-11" x="185.79" y="0">S</tspan><tspan x="196.16" y="0"> </tspan></text><g class="cls-12"><path class="cls-13" d="M174.31,125.09h-.08a3.6,3.6,0,0,1-1.16,2.74,4.06,4.06,0,0,1-2.89,1.08,4,4,0,0,1-2.5-.65q-1.62-1.27-1.62-5.56t1.62-5.58a3.78,3.78,0,0,1,2.4-.65,3.83,3.83,0,0,1,2.6,1,3,3,0,0,1,1.2,2.29H174v-3.35h-.07c-.06.2-.42.4-.95.4a7,7,0,0,1-1.4-.22,6.48,6.48,0,0,0-1.45-.23,5.82,5.82,0,0,0-4.39,1.87,6.28,6.28,0,0,0-1.75,4.43,6.16,6.16,0,0,0,1.79,4.43,6,6,0,0,0,4.45,1.85,7.66,7.66,0,0,0,1.71-.27,7.85,7.85,0,0,1,1.49-.27.84.84,0,0,1,.85.5h.08Z"/><path class="cls-13" d="M183.52,124.46l2.26-5.61,2.22,5.61Zm10.07,4.16h-1.71l-5.14-12.17h-.09L182,127.92c-.18.47-.37.7-.55.7h-1.32v.07h3.51v-.07H182.2c-.26,0-.32-.09-.08-.7l1.38-3.39H188l1.66,4.09h-1.91v.07h5.8Z"/><path class="cls-13" d="M207.43,119.69a3,3,0,0,1-.56,2.14,2.68,2.68,0,0,1-2,.58H203v-5.65h1.47C206.44,116.76,207.43,117.73,207.43,119.69Zm4.95,8.5a1.71,1.71,0,0,1-1.2.5c-.68,0-1.14-.7-1.14-1.58v-1.39c0-2-1.55-3.27-4.76-3.27a5.19,5.19,0,0,0,3-.81,2.37,2.37,0,0,0,1.22-2,2.47,2.47,0,0,0-1.24-2.11,5.78,5.78,0,0,0-3.3-.84h-5.75v.07H201v11.86h-1.81v.07h6.12v-.07H203v-6.14h1.91c1.83,0,3.05.69,3.05,2.11v1q0,3.3,2.71,3.3a2.5,2.5,0,0,0,1.77-.6Z"/><path class="cls-13" d="M226.32,120.48c0,2.33-1.14,3.44-3,3.44a6.14,6.14,0,0,1-2-.25v-6.91h1.79C225,116.76,226.32,118.11,226.32,120.48Zm2,0a3.28,3.28,0,0,0-1.41-2.7,6.07,6.07,0,0,0-3.84-1.09h-5.59v.07h1.79v11.86h-1.79v.07h5.61v-.07H221.3V123.8a9.56,9.56,0,0,0,2,.19,6,6,0,0,0,3.61-1A3,3,0,0,0,228.32,120.48Z"/><path class="cls-13" d="M245.68,125.29h-.08c0,1.94-1.3,3.33-4.21,3.33h-2.56v-6.07h1c1.49,0,2.36.78,2.36,2h.08v-3.94h-.08c0,1.2-.87,1.94-2.38,1.94h-1v-5.74h2.52c2.2,0,3.25,1.26,3.25,3h.08v-3.06H235v.07h1.79v11.86H235v.07h10.67Z"/><path class="cls-13" d="M262.72,116.69H251.88v3.56H252c0-2.14,1.12-3.49,3.72-3.49h.57v11.86h-1.77v.07h5.58v-.07h-1.79V116.76h.59c2.6,0,3.78,1.38,3.78,3.49h.08Z"/><path class="cls-13" d="M278.29,125.29a2.52,2.52,0,0,0-1-2.14,10,10,0,0,0-3-1.39c-2.36-.77-3.54-1.78-3.54-3.06a2,2,0,0,1,.79-1.55,2.78,2.78,0,0,1,1.87-.68,3.42,3.42,0,0,1,2.2.81,2.34,2.34,0,0,1,1,1.94h.08v-2.77h-.08c-.06.27-.31.4-.77.4a4.84,4.84,0,0,1-1.18-.22,4.62,4.62,0,0,0-1.3-.23,3.57,3.57,0,0,0-3.52,3.47c0,1.82,1.1,2.67,3.17,3.33a11.16,11.16,0,0,1,3.23,1.46,2.19,2.19,0,0,1,1,1.87,2.08,2.08,0,0,1-1,1.64,4.06,4.06,0,0,1-2.52.74,4,4,0,0,1-2.91-1.24,3.63,3.63,0,0,1-1.2-2.43h-.08v3.7h.08a1,1,0,0,1,1-.66,4.83,4.83,0,0,1,1.38.36,5.41,5.41,0,0,0,1.73.34,4.53,4.53,0,0,0,3.31-1.21A3.53,3.53,0,0,0,278.29,125.29Z"/><path class="cls-13" d="M296.6,128.1a4.09,4.09,0,0,1-1.65.39,3.66,3.66,0,0,1-2.91-1.22A4.81,4.81,0,0,1,291,124a3.64,3.64,0,0,1,1.47-2.74,30.43,30.43,0,0,0,3.05,5.49A7.21,7.21,0,0,0,296.6,128.1Zm-.45-10.32c0,.8-.9,1.68-2.14,2.33a6.37,6.37,0,0,1-.3-1.93c0-1.06.59-1.66,1.24-1.66C295.76,116.52,296.15,116.94,296.15,117.78Zm5.12,9.76a1.57,1.57,0,0,1-.91.86.79.79,0,0,1-.29.06,2.11,2.11,0,0,1-1-.34,3.29,3.29,0,0,1-.92-.78l-.22-.32a7.27,7.27,0,0,0,1.22-3.44,7.39,7.39,0,0,1,.14-1.12c.06-.1.22-.16.51-.16h.73v-.07h-2.7v.07h.87c.24,0,.37.07.39.2a3.84,3.84,0,0,1,0,1.08,6.53,6.53,0,0,1-1.2,3.35A28.5,28.5,0,0,1,294,120.2c1.33-.72,2.2-1.62,2.2-2.42s-.51-1.38-1.52-1.38c-1.49,0-2.59,1.26-2.59,3.18a5.35,5.35,0,0,0,.31,1.64c-2,1.23-3.05,2.65-3.05,4.27a3.18,3.18,0,0,0,1.18,2.52,4.5,4.5,0,0,0,3,1,6,6,0,0,0,3.11-.83,3,3,0,0,0,2,.81,3,3,0,0,0,2.7-1.37Z"/><path class="cls-13" d="M319.84,119.69a3,3,0,0,1-.55,2.14,2.69,2.69,0,0,1-2,.58h-1.9v-5.65h1.47C318.86,116.76,319.84,117.73,319.84,119.69Zm5,8.5a1.73,1.73,0,0,1-1.2.5c-.69,0-1.14-.7-1.14-1.58v-1.39c0-2-1.55-3.27-4.76-3.27a5.21,5.21,0,0,0,3-.81,2.37,2.37,0,0,0,1.22-2,2.47,2.47,0,0,0-1.24-2.11,5.82,5.82,0,0,0-3.31-.84H311.6v.07h1.81v11.86H311.6v.07h6.12v-.07h-2.3v-6.14h1.9c1.83,0,3.05.69,3.05,2.11v1q0,3.3,2.72,3.3a2.5,2.5,0,0,0,1.77-.6Z"/><path class="cls-13" d="M340.64,125.13c0,2.28-1.32,3.65-4,3.65q-3.31,0-3.31-3.6v-8.42h1.79v-.07h-5.61v.07h1.79v8.42c0,2.45,1.95,3.8,4.89,3.8s4.54-1.42,4.54-3.85v-7.72c0-.44.1-.65.28-.65h1.49v-.07h-3.66v.07h1.5c.19,0,.29.21.29.65Z"/><path class="cls-13" d="M361.15,124.08h-5.38v.08h1.77v3.07c0,1-1,1.7-2.65,1.7a3.89,3.89,0,0,1-2.44-.67,3,3,0,0,1-1-1.82,19.07,19.07,0,0,1-.26-3.74c0-2.88.53-4.74,1.61-5.58a3.85,3.85,0,0,1,2.4-.65,3.31,3.31,0,0,1,2.46,1,3.18,3.18,0,0,1,1.05,2.3h.08v-3.35h-.08c-.06.2-.42.4-.95.4a5.24,5.24,0,0,1-1.22-.22,4.75,4.75,0,0,0-1.34-.23,5.84,5.84,0,0,0-4.4,1.87,6.55,6.55,0,0,0,1,9.81,5.7,5.7,0,0,0,3.13.9c1.91,0,3-1,3.62-1a.91.91,0,0,1,1,.74h.08v-4.59h1.6Z"/><path class="cls-13" d="M375.92,125.29a2.51,2.51,0,0,0-.94-2.14,10,10,0,0,0-3-1.39c-2.36-.77-3.54-1.78-3.54-3.06a2,2,0,0,1,.78-1.55,2.82,2.82,0,0,1,1.87-.68,3.43,3.43,0,0,1,2.21.81,2.34,2.34,0,0,1,1,1.94h.08v-2.77h-.08c-.06.27-.31.4-.77.4a4.84,4.84,0,0,1-1.18-.22,4.62,4.62,0,0,0-1.3-.23,3.55,3.55,0,0,0-3.52,3.47c0,1.82,1.1,2.67,3.17,3.33a11.29,11.29,0,0,1,3.23,1.46,2.19,2.19,0,0,1,1,1.87,2.08,2.08,0,0,1-1,1.64,4.06,4.06,0,0,1-2.52.74,4,4,0,0,1-2.91-1.24,3.63,3.63,0,0,1-1.2-2.43h-.08v3.7h.08a1,1,0,0,1,1-.66,4.83,4.83,0,0,1,1.38.36,5.41,5.41,0,0,0,1.73.34,4.49,4.49,0,0,0,3.3-1.21A3.49,3.49,0,0,0,375.92,125.29Z"/></g></svg>