<svg id="Layer_1" data-name="Layer 1" xmlns="http://www.w3.org/2000/svg" xmlns:xlink="http://www.w3.org/1999/xlink" viewBox="0 0 383.49 157.69"><defs><style>.cls-1{fill:none;}.cls-2{fill:#010101;}.cls-3{clip-path:url(#clip-path);}.cls-4{font-size:106.94px;stroke-width:0.92px;font-family:Queensides;letter-spacing:0.01em;}.cls-4,.cls-6{stroke:#000;stroke-miterlimit:10;}.cls-5{font-size:133.68px;letter-spacing:0.01em;}.cls-6{font-size:17.77px;stroke-width:0.23px;font-family:DidotTitle, Didot Title;letter-spacing:0.06em;}</style><clipPath id="clip-path"><rect class="cls-1" x="-229.2" y="-206.29" width="797.98" height="564.97"/></clipPath></defs><path class="cls-2" d="M75.51,150.1,2.7,79.82l71.11-74,72.81,70.28ZM15,79.59l60.28,58.19,59-61.41L74,18.19Z"/><g class="cls-3"><path class="cls-2" d="M84.8,121.93a36.61,36.61,0,0,1-26.31-62L90.37,26.79l6.26,6L64.76,66a27.86,27.86,0,1,0,40.1,38.7l32.53-33.83,6.26,6-32.53,33.83A36.38,36.38,0,0,1,84.8,121.93"/><path class="cls-2" d="M59.34,128.11l-6.18-5.91L83.57,90.9a27.7,27.7,0,0,0-.74-39.42,28.28,28.28,0,0,0-39.76.74L12,84.18,5.82,78.27l31.06-32a36.93,36.93,0,0,1,51.91-1,36.22,36.22,0,0,1,1,51.46Z"/><rect class="cls-2" x="104.18" y="71.4" width="8.71" height="36.29" transform="translate(15.77 195.34) rotate(-88.28)"/></g><polygon class="cls-2" points="87.77 7.77 147.22 66.31 147.22 54.1 100.17 7.77 87.77 7.77"/><polygon class="cls-2" points="4.49 105.98 49.28 150.09 61.68 150.09 4.49 93.77 4.49 105.98"/><polygon class="cls-2" points="4.49 131.71 23.15 150.09 35.56 150.09 4.49 119.49 4.49 131.71"/><polygon class="cls-2" points="114.73 7.77 147.22 39.77 147.22 27.55 127.13 7.77 114.73 7.77"/><polygon class="cls-2" points="23.12 7.77 4.49 26.76 4.49 39.2 35.31 7.77 23.12 7.77"/><polygon class="cls-2" points="49.61 7.77 4.49 53.78 4.49 66.21 61.81 7.77 49.61 7.77"/><polygon class="cls-2" points="88.72 150.09 100.92 150.09 147.22 102.88 147.22 90.44 88.72 150.09"/><polygon class="cls-2" points="115.22 150.09 127.41 150.09 147.22 129.89 147.22 117.45 115.22 150.09"/><text class="cls-4" transform="translate(158.09 112.57) scale(1.01 1)">R<tspan class="cls-5" x="58.88" y="0">i</tspan><tspan x="81.43" y="0">CH</tspan></text><text class="cls-6" transform="translate(160.49 135.17) scale(1.09 1)"><tspan xml:space="preserve">C A R P E T S  &amp;  R U G S </tspan></text></svg>